<svg aria-hidden="true" style="position: absolute; width: 0; height: 0; overflow: hidden;" version="1.1" xmlns="http://www.w3.org/2000/svg" xmlns:xlink="http://www.w3.org/1999/xlink">
<defs>
<symbol id="icon-logika" viewBox="0 0 32 32">
<path d="M26 28c0.128 0 0.256-0.049 0.354-0.146l2.5-2.5-0.707-0.707-2.146 2.146-1.146-1.146-0.707 0.707 1.5 1.5c0.098 0.098 0.226 0.146 0.354 0.146z"></path>
<path d="M30.5 2.5h-1.5v-1c0-0.276-0.224-0.5-0.5-0.5h-6c-0.276 0-0.5 0.224-0.5 0.5v1h-1.5c-0.276 0-0.5 0.224-0.5 0.5v4.5h-4.5v-2.5h2.5c0.276 0 0.5-0.223 0.5-0.5v-3c0-0.276-0.224-0.5-0.5-0.5h-6c-0.276 0-0.5 0.224-0.5 0.5v3c0 0.277 0.224 0.5 0.5 0.5h2.5v2.5h-4.5v-4.5c0-0.276-0.224-0.5-0.5-0.5h-1.5v-1c0-0.276-0.224-0.5-0.5-0.5h-6c-0.276 0-0.5 0.224-0.5 0.5v3c0 0.277 0.224 0.5 0.5 0.5h6c0.276 0 0.5-0.223 0.5-0.5v-1h1v4.5c0 0.277 0.224 0.5 0.5 0.5h5v1.5h-2.5c-0.276 0-0.5 0.223-0.5 0.5v3c0 0.277 0.224 0.5 0.5 0.5h2.5v1.5h-6.5v-1c0-0.277-0.224-0.5-0.5-0.5h-2.5v-1.5h2.5c0.276 0 0.5-0.223 0.5-0.5v-3c0-0.277-0.224-0.5-0.5-0.5h-6c-0.276 0-0.5 0.223-0.5 0.5v3c0 0.277 0.224 0.5 0.5 0.5h2.5v1.5h-2.5c-0.276 0-0.5 0.223-0.5 0.5v3c0 0.276 0.224 0.5 0.5 0.5h6c0.276 0 0.5-0.224 0.5-0.5v-1h6.5v1.5h-2.5c-0.276 0-0.5 0.224-0.5 0.5v3c0 0.276 0.224 0.5 0.5 0.5h2.5v2.5h-2.5c-0.276 0-0.5 0.224-0.5 0.5v3c0 0.276 0.224 0.5 0.5 0.5h6c0.276 0 0.5-0.224 0.5-0.5v-1h3.529c0.25 2.247 2.159 4 4.471 4 2.481 0 4.5-2.018 4.5-4.5s-2.019-4.5-4.5-4.5c-2.312 0-4.221 1.753-4.471 4h-3.529v-1c0-0.276-0.224-0.5-0.5-0.5h-2.5v-2.5h2.5c0.276 0 0.5-0.224 0.5-0.5v-1h12c0.276 0 0.5-0.224 0.5-0.5v-17c0-0.276-0.224-0.5-0.5-0.5zM12.5 2h5v2h-5v-2zM7 4h-5v-2h5v2zM2 9.5h5v2h-5v-2zM7 17h-5v-2h5v2zM26.5 23c1.93 0 3.5 1.57 3.5 3.5s-1.57 3.5-3.5 3.5-3.5-1.57-3.5-3.5 1.57-3.5 3.5-3.5zM17.5 27.5h-5v-2h5v2zM23 2h5v2h-5v-2zM12.5 11h5v2h-5v-2zM17.5 21h-5v-2h5v2zM30 19.5h-11.5v-1c0-0.276-0.224-0.5-0.5-0.5h-2.5v-4h2.5c0.276 0 0.5-0.223 0.5-0.5v-3c0-0.277-0.224-0.5-0.5-0.5h-2.5v-1.5h5c0.276 0 0.5-0.223 0.5-0.5v-4.5h1v1c0 0.277 0.224 0.5 0.5 0.5h6c0.276 0 0.5-0.223 0.5-0.5v-1h1v16z"></path>
</symbol>
<symbol id="icon-js" viewBox="0 0 32 32">
<path fill="#767676" d="M2 2h28v28h-28v-28z"></path>
<path fill="#e4e6eb"  d="M20.809 23.875c0.478 0.956 1.449 1.6 2.571 1.6 0.010 0 0.020-0 0.030-0h-0.002c1.090 0 1.787-0.545 1.787-1.3 0-0.9-0.716-1.222-1.916-1.747l-0.658-0.282c-1.9-0.809-3.16-1.822-3.16-3.964 0-1.973 1.5-3.476 3.853-3.476 0.084-0.006 0.182-0.010 0.28-0.010 1.501 0 2.803 0.85 3.452 2.096l0.010 0.022-2.057 1.315c-0.27-0.667-0.912-1.128-1.663-1.128-0.009 0-0.019 0-0.028 0l0.001-0c-0.034-0.004-0.074-0.006-0.114-0.006-0.628 0-1.139 0.506-1.145 1.133v0.001c0 0.789 0.489 1.109 1.618 1.6l0.658 0.282c2.236 0.959 3.5 1.936 3.5 4.133 0 2.369-1.861 3.667-4.36 3.667-0.096 0.007-0.208 0.010-0.321 0.010-1.931 0-3.609-1.083-4.46-2.674l-0.013-0.027zM11.514 24.103c0.413 0.733 0.789 1.353 1.693 1.353 0.864 0 1.41-0.338 1.41-1.653v-8.947h2.631v8.982c0 2.724-1.6 3.964-3.929 3.964-0.067 0.004-0.145 0.006-0.223 0.006-1.648 0-3.068-0.976-3.714-2.381l-0.010-0.025z"></path>
</symbol>
<symbol id="icon-node" viewBox="0 0 40 32">
<path fill="#767676" d="M19.769 28.25c-0.131 0-0.262-0.038-0.381-0.1l-1.2-0.712c-0.181-0.1-0.094-0.137-0.031-0.156 0.238-0.081 0.288-0.1 0.544-0.25 0.025-0.012 0.063-0.006 0.087 0.006l0.925 0.55c0.031 0.019 0.081 0.019 0.113 0l3.613-2.087c0.031-0.019 0.056-0.056 0.056-0.1v-4.169c0-0.044-0.019-0.081-0.056-0.1l-3.613-2.081c-0.031-0.019-0.075-0.019-0.113 0l-3.613 2.081c-0.038 0.019-0.056 0.063-0.056 0.1v4.169c0 0.038 0.025 0.075 0.056 0.094l0.988 0.569c0.538 0.269 0.869-0.050 0.869-0.363v-4.119c0-0.056 0.044-0.106 0.106-0.106h0.456c0.056 0 0.106 0.044 0.106 0.106v4.119c0 0.719-0.387 1.125-1.069 1.125-0.206 0-0.375 0-0.831-0.225l-0.95-0.544c-0.231-0.137-0.381-0.387-0.381-0.656v-4.169c0-0.269 0.144-0.525 0.381-0.656l3.613-2.087c0.231-0.131 0.531-0.131 0.756 0l3.613 2.087c0.231 0.137 0.381 0.387 0.381 0.656v4.169c0 0.269-0.144 0.525-0.381 0.656l-3.613 2.087c-0.106 0.069-0.238 0.106-0.375 0.106zM22.688 24.137c0-0.781-0.525-0.988-1.637-1.137-1.125-0.15-1.238-0.225-1.238-0.488 0-0.219 0.094-0.506 0.925-0.506 0.744 0 1.019 0.163 1.131 0.663 0.012 0.050 0.050 0.081 0.1 0.081h0.469c0.031 0 0.056-0.012 0.075-0.031 0.019-0.025 0.031-0.050 0.025-0.081-0.075-0.863-0.644-1.262-1.8-1.262-1.031 0-1.644 0.438-1.644 1.163 0 0.794 0.613 1.006 1.6 1.106 1.181 0.119 1.275 0.288 1.275 0.519 0 0.406-0.325 0.575-1.087 0.575-0.956 0-1.169-0.238-1.238-0.712-0.006-0.050-0.050-0.087-0.106-0.087h-0.469c-0.056 0-0.106 0.044-0.106 0.106 0 0.606 0.331 1.331 1.913 1.331 1.156 0 1.813-0.45 1.813-1.238zM26.094 21.006c0 0.381-0.313 0.694-0.694 0.694s-0.694-0.313-0.694-0.694c0-0.394 0.325-0.694 0.694-0.694 0.375-0.006 0.694 0.3 0.694 0.694zM25.981 21.006c0-0.325-0.262-0.581-0.587-0.581-0.319 0-0.581 0.256-0.581 0.581s0.262 0.587 0.581 0.587c0.325-0.006 0.587-0.269 0.587-0.587zM25.7 21.394h-0.163c-0.006-0.038-0.031-0.238-0.031-0.244-0.012-0.044-0.025-0.069-0.081-0.069h-0.137v0.313h-0.15v-0.781h0.269c0.094 0 0.275 0 0.275 0.206 0 0.144-0.094 0.175-0.15 0.194 0.106 0.006 0.113 0.075 0.131 0.175 0.006 0.063 0.019 0.169 0.038 0.206zM25.525 20.844c0-0.106-0.075-0.106-0.113-0.106h-0.125v0.219h0.119c0.1 0 0.119-0.069 0.119-0.113zM8.581 11.938c0-0.169-0.088-0.319-0.231-0.4l-3.831-2.206c-0.063-0.037-0.138-0.056-0.213-0.063h-0.037c-0.075 0-0.144 0.025-0.213 0.063l-3.825 2.206c-0.144 0.081-0.231 0.238-0.231 0.4l0.006 5.937c0 0.081 0.044 0.156 0.113 0.2s0.156 0.044 0.231 0l2.275-1.306c0.144-0.087 0.231-0.238 0.231-0.4v-2.775c0-0.162 0.087-0.319 0.231-0.4l0.969-0.556c0.075-0.044 0.15-0.063 0.231-0.063s0.162 0.019 0.231 0.063l0.969 0.556c0.144 0.081 0.231 0.238 0.231 0.4v2.775c0 0.163 0.088 0.319 0.231 0.4l2.275 1.306c0.069 0.044 0.162 0.044 0.231 0 0.069-0.038 0.113-0.119 0.113-0.2l0.012-5.938zM29.531 5.456v11.025c0 0.163-0.087 0.319-0.231 0.4l-3.831 2.212c-0.144 0.081-0.319 0.081-0.462 0l-3.831-2.212c-0.144-0.081-0.231-0.238-0.231-0.4v-4.425c0-0.162 0.087-0.319 0.231-0.4l3.831-2.213c0.144-0.081 0.319-0.081 0.462 0l0.956 0.55c0.106 0.063 0.244-0.019 0.244-0.137v-5.875c0-0.175 0.188-0.288 0.344-0.2l2.281 1.275c0.144 0.075 0.238 0.231 0.238 0.4zM26.656 13.512c0-0.044-0.025-0.081-0.056-0.1l-1.313-0.762c-0.038-0.019-0.081-0.019-0.119 0l-1.313 0.762c-0.038 0.019-0.056 0.056-0.056 0.1v1.519c0 0.044 0.025 0.081 0.056 0.1l1.313 0.756c0.038 0.019 0.081 0.019 0.113 0l1.313-0.756c0.038-0.019 0.056-0.056 0.056-0.1v-1.519zM39.769 13.469c0.144-0.081 0.231-0.238 0.231-0.4v-1.069c0-0.162-0.087-0.319-0.231-0.4l-3.806-2.213c-0.144-0.081-0.319-0.081-0.462 0l-3.831 2.213c-0.144 0.081-0.231 0.238-0.231 0.4v4.425c0 0.169 0.087 0.319 0.231 0.4l3.806 2.169c0.138 0.081 0.313 0.081 0.456 0l2.3-1.281c0.156-0.087 0.156-0.313 0-0.4l-3.856-2.213c-0.075-0.044-0.119-0.119-0.119-0.2v-1.387c0-0.081 0.044-0.156 0.119-0.2l1.2-0.694c0.069-0.044 0.163-0.044 0.231 0l1.2 0.694c0.069 0.044 0.119 0.119 0.119 0.2v1.088c0 0.175 0.194 0.287 0.35 0.2l2.294-1.331zM34.938 13.688c-0.025 0.019-0.044 0.044-0.044 0.075v0.85c0 0.031 0.019 0.063 0.044 0.075l0.737 0.425c0.025 0.019 0.063 0.019 0.087 0l0.737-0.425c0.025-0.019 0.044-0.044 0.044-0.075v-0.85c0-0.031-0.019-0.063-0.044-0.075l-0.737-0.425c-0.025-0.019-0.063-0.019-0.087 0l-0.737 0.425zM19.050 16.406v-4.4c0-0.162-0.1-0.319-0.244-0.4l-3.819-2.2c-0.131-0.075-0.313-0.088-0.463 0l-3.819 2.2c-0.144 0.081-0.244 0.231-0.244 0.4v4.4c0 0.175 0.119 0.325 0.25 0.4l3.825 2.2c0.15 0.087 0.325 0.081 0.463 0l3.812-2.2c0.113-0.063 0.194-0.169 0.225-0.294 0.006-0.031 0.012-0.069 0.012-0.106zM14.406 8.6l-0.050 0.031h0.069l-0.019-0.031zM19.169 16.738l-0.025-0.044v0.056l0.025-0.012z"></path>
</symbol>
<symbol id="icon-react" viewBox="0 0 32 32">
<path fill="#767676"  d="M18.85 16c0 1.574-1.276 2.85-2.85 2.85s-2.85-1.276-2.85-2.85c0-1.574 1.276-2.85 2.85-2.85s2.85 1.276 2.85 2.85z"></path>
<path fill="#767676"  d="M26.825 11.3c-0.55-0.2-1.125-0.4-1.725-0.575 0.15-0.6 0.275-1.2 0.375-1.775 0.525-3.3-0.050-5.625-1.65-6.525-0.475-0.275-1-0.4-1.6-0.4-1.75 0-3.975 1.3-6.225 3.475-2.25-2.175-4.475-3.475-6.225-3.475-0.6 0-1.125 0.125-1.6 0.4-1.6 0.925-2.175 3.25-1.65 6.525 0.1 0.575 0.225 1.175 0.375 1.775-0.6 0.175-1.175 0.35-1.725 0.575-3.125 1.2-4.825 2.85-4.825 4.7s1.725 3.5 4.825 4.7c0.55 0.2 1.125 0.4 1.725 0.575-0.15 0.6-0.275 1.2-0.375 1.775-0.525 3.3 0.050 5.625 1.65 6.525 0.475 0.275 1 0.4 1.6 0.4 1.775 0 4-1.3 6.225-3.475 2.25 2.175 4.475 3.475 6.225 3.475 0.6 0 1.125-0.125 1.6-0.4 1.6-0.925 2.175-3.25 1.65-6.525-0.1-0.575-0.225-1.175-0.375-1.775 0.6-0.175 1.175-0.35 1.725-0.575 3.125-1.2 4.825-2.85 4.825-4.7s-1.7-3.5-4.825-4.7zM23.125 3.675c1.025 0.6 1.375 2.45 0.95 5.075-0.075 0.525-0.2 1.075-0.35 1.65-1.3-0.3-2.675-0.5-4.125-0.625-0.85-1.2-1.725-2.275-2.6-3.25 1.85-1.825 3.725-3.075 5.25-3.075 0.325 0 0.625 0.075 0.875 0.225zM20.325 18.5c-0.45 0.8-0.975 1.6-1.525 2.4-0.925 0.075-1.85 0.1-2.8 0.1-0.975 0-1.9-0.025-2.8-0.1-0.55-0.8-1.050-1.6-1.5-2.4-0.475-0.825-0.925-1.675-1.325-2.5 0.4-0.825 0.85-1.675 1.325-2.5 0.45-0.8 0.975-1.6 1.525-2.4 0.925-0.075 1.85-0.1 2.8-0.1 0.975 0 1.9 0.025 2.8 0.1 0.55 0.8 1.050 1.6 1.5 2.4 0.475 0.825 0.925 1.675 1.325 2.5-0.425 0.825-0.85 1.65-1.325 2.5zM22.4 17.675c0.375 0.875 0.675 1.725 0.95 2.575-0.85 0.2-1.75 0.35-2.7 0.475 0.3-0.475 0.625-0.975 0.9-1.5 0.3-0.525 0.575-1.050 0.85-1.55zM16 24.45c-0.6-0.65-1.175-1.35-1.725-2.075 0.575 0.025 1.15 0.050 1.725 0.050s1.15-0.025 1.725-0.050c-0.55 0.725-1.125 1.425-1.725 2.075zM11.35 20.7c-0.95-0.125-1.85-0.275-2.7-0.475 0.275-0.825 0.575-1.7 0.95-2.575 0.275 0.5 0.55 1.025 0.85 1.525 0.3 0.55 0.6 1.025 0.9 1.525zM9.6 14.325c-0.375-0.875-0.675-1.725-0.95-2.575 0.85-0.2 1.75-0.35 2.7-0.475-0.3 0.475-0.625 0.975-0.9 1.5-0.3 0.525-0.575 1.050-0.85 1.55zM16 7.55c0.6 0.65 1.175 1.35 1.725 2.075-0.575-0.025-1.15-0.050-1.725-0.050s-1.15 0.025-1.725 0.050c0.55-0.725 1.125-1.425 1.725-2.075zM21.55 12.8l-0.9-1.5c0.95 0.125 1.85 0.275 2.7 0.475-0.275 0.825-0.575 1.7-0.95 2.575-0.275-0.525-0.55-1.050-0.85-1.55zM7.925 8.75c-0.425-2.625-0.075-4.475 0.95-5.075 0.25-0.15 0.55-0.225 0.875-0.225 1.5 0 3.375 1.225 5.25 3.075-0.875 0.95-1.75 2.050-2.6 3.25-1.45 0.125-2.825 0.35-4.125 0.625-0.15-0.575-0.25-1.125-0.35-1.65zM1.75 16c0-1.175 1.425-2.425 3.925-3.35 0.5-0.2 1.050-0.375 1.6-0.525 0.4 1.25 0.9 2.575 1.5 3.9-0.6 1.325-1.125 2.625-1.5 3.875-3.45-1-5.525-2.5-5.525-3.9zM8.875 28.325c-1.025-0.6-1.375-2.45-0.95-5.075 0.075-0.525 0.2-1.075 0.35-1.65 1.3 0.3 2.675 0.5 4.125 0.625 0.85 1.2 1.725 2.275 2.6 3.25-1.85 1.825-3.725 3.075-5.25 3.075-0.325 0-0.625-0.075-0.875-0.225zM24.075 23.25c0.425 2.625 0.075 4.475-0.95 5.075-0.25 0.15-0.55 0.225-0.875 0.225-1.5 0-3.375-1.225-5.25-3.075 0.875-0.95 1.75-2.050 2.6-3.25 1.45-0.125 2.825-0.35 4.125-0.625 0.15 0.575 0.25 1.125 0.35 1.65zM26.325 19.35c-0.5 0.2-1.050 0.375-1.6 0.525-0.4-1.25-0.9-2.575-1.5-3.9 0.6-1.325 1.125-2.625 1.5-3.875 3.45 1 5.525 2.5 5.525 3.9 0 1.175-1.45 2.425-3.925 3.35z"></path>
</symbol>
<symbol id="icon-vscode" viewBox="0 0 32 32">
<path fill="#767676" d="M24 27.484v-27.484l8 3.328v25.344l-8 3.328-24-8.081 24 3.564zM3.824 18.734l-1.824-0.609 4.502-4.45-4.502-4.45 1.824-0.609 4.426 3.333 7.35-7.266 4.4 1.871v14.243l-4.401 1.871-7.35-7.265-4.425 3.333zM10.543 13.675l5.057 3.808v-7.616l-5.057 3.808z"></path>
</symbol>
<symbol id="icon-portfolio" viewBox="0 0 32 32">
<path d="M19.952 4.319l-1.084-0.297c-0.14-0.047-0.277-0.032-0.411 0.044s-0.225 0.189-0.271 0.341l-6.523 22.575c-0.047 0.152-0.032 0.295 0.044 0.428s0.189 0.224 0.341 0.271l1.084 0.297c0.14 0.047 0.277 0.032 0.411-0.044s0.225-0.189 0.271-0.341l6.523-22.576c0.047-0.152 0.032-0.294-0.044-0.429s-0.189-0.224-0.341-0.271z"></path>
<path d="M10.177 8.726c0-0.152-0.058-0.286-0.175-0.402l-0.874-0.874c-0.117-0.117-0.251-0.175-0.402-0.175s-0.286 0.059-0.402 0.175l-8.149 8.149c-0.117 0.117-0.175 0.251-0.175 0.402s0.058 0.286 0.175 0.402l8.149 8.149c0.117 0.117 0.25 0.175 0.402 0.175s0.286-0.058 0.402-0.175l0.874-0.874c0.117-0.116 0.175-0.251 0.175-0.402s-0.058-0.285-0.175-0.402l-6.872-6.873 6.872-6.872c0.117-0.117 0.175-0.251 0.175-0.402z"></path>
<path d="M31.825 15.598l-8.149-8.149c-0.116-0.117-0.251-0.175-0.402-0.175s-0.285 0.059-0.402 0.175l-0.874 0.874c-0.116 0.117-0.175 0.251-0.175 0.402s0.058 0.286 0.175 0.402l6.872 6.872-6.872 6.873c-0.116 0.116-0.175 0.251-0.175 0.402s0.058 0.286 0.175 0.402l0.874 0.874c0.117 0.117 0.251 0.175 0.402 0.175s0.285-0.058 0.402-0.175l8.149-8.149c0.117-0.116 0.175-0.251 0.175-0.402s-0.058-0.286-0.175-0.402z"></path>
</symbol>
<symbol id="icon-open" viewBox="0 0 32 32">
<path d="M31.121 26.879l-7.341-7.342c-1.094 1.701-2.541 3.148-4.243 4.242l7.342 7.342c1.172 1.172 3.072 1.172 4.242 0 1.172-1.17 1.172-3.070 0-4.242z"></path>
<path d="M24 12c0-6.627-5.373-12-12-12s-12 5.373-12 12 5.373 12 12 12c6.627 0 12-5.373 12-12zM12 21c-4.963 0-9-4.037-9-9s4.037-9 9-9c4.963 0 9 4.037 9 9s-4.037 9-9 9z"></path>
<path d="M5 12h2c0-2.757 2.243-5 5-5v-2c-3.859 0-7 3.141-7 7z"></path>
</symbol>
<symbol id="icon-up" viewBox="0 0 32 32">
<path d="M24 20c-0.001 0-0.002 0-0.003 0-0.324 0-0.622-0.116-0.853-0.308l0.002 0.002-7.147-5.973-7.16 5.76c-0.227 0.186-0.521 0.298-0.841 0.298-0.419 0-0.793-0.193-1.037-0.496l-0.002-0.003c-0.186-0.227-0.298-0.521-0.298-0.841 0-0.419 0.193-0.793 0.496-1.038l0.003-0.002 8-6.44c0.228-0.189 0.524-0.303 0.847-0.303s0.618 0.115 0.849 0.305l-0.002-0.002 8 6.667c0.296 0.246 0.482 0.615 0.482 1.026 0 0.326-0.117 0.624-0.311 0.856l0.002-0.002c-0.245 0.3-0.613 0.491-1.026 0.493h-0z"></path>
</symbol>
<symbol id="icon-github" viewBox="0 0 32 32">
<path d="M13.669 27.844c-0.412 0.044-0.762 0.087-1.113 0.125-1.819 0.181-3.406-0.313-4.606-1.731-0.375-0.444-0.588-1.019-0.906-1.512-0.494-0.775-1-1.544-1.544-2.288-0.188-0.256-0.513-0.406-0.763-0.625-0.081-0.069-0.106-0.2-0.162-0.306 0.112-0.044 0.219-0.119 0.331-0.131 1.438-0.131 2.45 0.531 3.156 1.725 0.881 1.488 2.156 2.3 3.888 2.3 0.5 0 1-0.169 1.494-0.281 0.094-0.025 0.206-0.169 0.219-0.275 0.088-0.65 0.169-1.3 0.469-1.894 0.113-0.219 0.244-0.425 0.375-0.65-0.506-0.1-0.994-0.175-1.475-0.294-2.219-0.563-4.050-1.675-5.112-3.788-0.412-0.825-0.644-1.712-0.675-2.637-0.050-1.425-0.031-2.856 0.256-4.262 0.206-0.988 0.581-1.906 1.331-2.619 0.162-0.156 0.194-0.294 0.106-0.531-0.419-1.169-0.463-2.356-0.106-3.55 0.075-0.256 0.144-0.513 0.219-0.781 1.713 0.325 2.731 1.481 3.688 2.763 0.988-0.731 2.156-0.794 3.294-0.869 1.35-0.088 2.706-0.069 4.050 0.15 0.7 0.112 1.131 0.256 1.813 0.662 0.587-0.606 1.137-1.219 1.744-1.775 0.481-0.444 1.081-0.725 1.731-0.875 0.181-0.044 0.275-0.025 0.35 0.175 0.506 1.381 0.581 2.756 0.025 4.138-0.075 0.188-0.069 0.319 0.087 0.469 0.9 0.856 1.313 1.963 1.45 3.156 0.125 1.106 0.194 2.219 0.194 3.331 0 1.581-0.469 3.031-1.462 4.275-0.7 0.881-1.606 1.512-2.631 1.988-0.994 0.456-2.031 0.719-3.106 0.856-0.025 0.006-0.050 0.025-0.094 0.044 0.738 1.056 0.856 2.244 0.844 3.475-0.019 1.794-0.012 3.581 0 5.375 0 0.281-0.081 0.35-0.356 0.35-2.219-0.012-4.438-0.012-6.656 0-0.275 0-0.363-0.087-0.363-0.356 0.012-0.969 0.006-1.938 0.006-2.906 0.012-0.144 0.012-0.269 0.012-0.419z"></path>
</symbol>
<symbol id="icon-messenger" viewBox="0 0 32 32">
<path d="M16 0c-8.837 0-16 6.633-16 14.815 0 4.662 2.327 8.821 5.963 11.536v5.649l5.448-2.99c1.454 0.402 2.994 0.62 4.589 0.62 8.837 0 16-6.633 16-14.815s-7.163-14.815-16-14.815v0zM17.59 19.951l-4.075-4.346-7.95 4.346 8.745-9.284 4.174 4.346 7.851-4.346-8.745 9.284z"></path>
</symbol>
<symbol id="icon-telegram" viewBox="0 0 32 32">
<path d="M29.402 2.839l-28.351 10.989c-1.141 0.512-1.527 1.537-0.276 2.093l7.273 2.323 17.585-10.924c0.96-0.686 1.943-0.503 1.097 0.251l-15.104 13.746-0.474 5.817c0.439 0.898 1.244 0.902 1.757 0.456l4.179-3.974 7.157 5.387c1.662 0.989 2.567 0.351 2.924-1.462l4.694-22.342c0.487-2.232-0.344-3.215-2.462-2.36z"></path>
</symbol>
<symbol id="icon-coding" viewBox="0 0 32 32">
<path d="M29.75 3.5h-27.5c-0.464 0.001-0.909 0.185-1.237 0.513s-0.513 0.773-0.513 1.237v17.5c0 0.464 0.185 0.909 0.513 1.237s0.773 0.513 1.237 0.513h10.011l-0.6 1.5h-2.661c-0.133 0-0.26 0.053-0.354 0.146s-0.146 0.221-0.146 0.354v1h-3c-0.133 0-0.26 0.053-0.354 0.146s-0.146 0.221-0.146 0.354c0 0.133 0.053 0.26 0.146 0.354s0.221 0.146 0.354 0.146h21c0.133 0 0.26-0.053 0.354-0.146s0.146-0.221 0.146-0.354c0-0.133-0.053-0.26-0.146-0.354s-0.221-0.146-0.354-0.146h-3v-1c0-0.133-0.053-0.26-0.146-0.354s-0.221-0.146-0.354-0.146h-2.661l-0.6-1.5h10.011c0.464-0.001 0.909-0.185 1.237-0.513s0.513-0.773 0.513-1.237v-17.5c-0.001-0.464-0.185-0.909-0.513-1.237s-0.773-0.513-1.237-0.513zM22.5 27v0.5h-13v-0.5h13zM12.739 26l0.6-1.5h5.323l0.6 1.5h-6.523zM30.5 22.75c-0 0.199-0.079 0.39-0.22 0.53s-0.331 0.22-0.53 0.22h-27.5c-0.199-0-0.39-0.079-0.53-0.22s-0.22-0.331-0.22-0.53v-1.25h29v1.25zM30.5 20.5h-29v-15.25c0-0.199 0.079-0.389 0.22-0.53s0.331-0.22 0.53-0.22h27.5c0.199 0 0.39 0.079 0.53 0.22s0.22 0.331 0.22 0.53v15.25z"></path>
<path d="M13.726 16.418c0.055 0.036 0.116 0.061 0.181 0.073s0.131 0.012 0.195-0.002c0.064-0.013 0.125-0.039 0.18-0.076s0.101-0.084 0.137-0.139l3.938-6c0.073-0.111 0.099-0.246 0.072-0.376s-0.104-0.244-0.215-0.316c-0.111-0.073-0.246-0.099-0.376-0.072s-0.244 0.104-0.316 0.215l-3.938 6c-0.036 0.055-0.061 0.116-0.073 0.181s-0.012 0.131 0.002 0.195c0.013 0.064 0.039 0.125 0.076 0.18s0.084 0.101 0.139 0.137z"></path>
<path d="M19.18 16.384c0.102 0.085 0.233 0.126 0.365 0.114s0.254-0.076 0.339-0.178l2.5-3c0.075-0.090 0.116-0.203 0.116-0.32s-0.041-0.23-0.116-0.32l-2.5-3c-0.042-0.051-0.093-0.093-0.152-0.124s-0.122-0.050-0.188-0.056c-0.066-0.006-0.132 0.001-0.195 0.020s-0.121 0.051-0.172 0.093c-0.051 0.042-0.092 0.094-0.123 0.152s-0.049 0.122-0.055 0.188 0.001 0.132 0.021 0.195c0.020 0.063 0.052 0.121 0.094 0.172l2.233 2.68-2.233 2.68c-0.085 0.102-0.126 0.233-0.114 0.365s0.076 0.254 0.178 0.339z"></path>
<path d="M12.116 16.32c0.042 0.051 0.093 0.093 0.152 0.124s0.122 0.050 0.188 0.056c0.066 0.006 0.132-0.001 0.195-0.020s0.121-0.051 0.172-0.093c0.051-0.042 0.092-0.094 0.123-0.152s0.049-0.122 0.055-0.188-0.001-0.132-0.021-0.195c-0.020-0.063-0.052-0.121-0.094-0.171l-2.233-2.68 2.233-2.68c0.043-0.050 0.075-0.109 0.094-0.172s0.027-0.129 0.021-0.195c-0.006-0.066-0.024-0.129-0.055-0.188s-0.072-0.11-0.123-0.152c-0.051-0.042-0.109-0.074-0.172-0.093s-0.129-0.026-0.195-0.020c-0.066 0.006-0.129 0.025-0.188 0.056s-0.11 0.073-0.152 0.124l-2.5 3c-0.075 0.090-0.116 0.203-0.116 0.32s0.041 0.23 0.116 0.32l2.5 3z"></path>
</symbol>
<symbol id="icon-illustration" viewBox="0 0 32 32">
<path d="M14.875 23.218c-0.259 0-0.469 0.21-0.469 0.469s0.21 0.469 0.469 0.469h2.25c0.259 0 0.469-0.21 0.469-0.469s-0.21-0.469-0.469-0.469h-2.25z"></path>
<path d="M5.625 15.94h3.098c0.189 0.493 0.666 0.844 1.224 0.844s1.035-0.351 1.224-0.844h0.619c0.259 0 0.469-0.21 0.469-0.469s-0.21-0.469-0.469-0.469h-0.619c-0.189-0.493-0.666-0.844-1.224-0.844s-1.035 0.351-1.224 0.844h-3.098c-0.259 0-0.469 0.21-0.469 0.469s0.21 0.469 0.469 0.469zM9.948 15.096c0.207 0 0.375 0.168 0.375 0.375s-0.168 0.375-0.375 0.375c-0.207 0-0.375-0.168-0.375-0.375s0.168-0.375 0.375-0.375z"></path>
<path d="M5.625 13.252h0.598c0.189 0.493 0.666 0.844 1.224 0.844s1.035-0.351 1.224-0.844h3.119c0.259 0 0.469-0.21 0.469-0.469s-0.21-0.469-0.469-0.469h-3.119c-0.189-0.493-0.666-0.844-1.224-0.844s-1.035 0.351-1.224 0.844h-0.598c-0.259 0-0.469 0.21-0.469 0.469s0.21 0.469 0.469 0.469zM7.448 12.408c0.207 0 0.375 0.168 0.375 0.375s-0.168 0.375-0.375 0.375c-0.207 0-0.375-0.168-0.375-0.375s0.168-0.375 0.375-0.375z"></path>
<path d="M11.885 8.94c0.259 0 0.469-0.21 0.469-0.469s-0.21-0.469-0.469-0.469c-0.259 0-0.469 0.21-0.469 0.469s0.21 0.469 0.469 0.469z"></path>
<path d="M10.594 8.94c0.259 0 0.469-0.21 0.469-0.469s-0.21-0.469-0.469-0.469c-0.259 0-0.469 0.21-0.469 0.469s0.21 0.469 0.469 0.469z"></path>
<path d="M9.302 8.94c0.259 0 0.469-0.21 0.469-0.469s-0.21-0.469-0.469-0.469c-0.259 0-0.469 0.21-0.469 0.469s0.21 0.469 0.469 0.469z"></path>
<path d="M30.594 3.155h-0.176l0.131-0.131c0.392-0.392 0.392-1.030 0-1.423l-1.026-1.026c-0.392-0.392-1.030-0.392-1.423 0l-2.579 2.58h-24.115c-0.775 0-1.406 0.631-1.406 1.406v19.467c0 0.948 0.771 1.719 1.719 1.719h11.103v3.316h-2.259c-0.603 0-1.094 0.491-1.094 1.094v0.468c0 0.603 0.491 1.094 1.094 1.094h10.875c0.603 0 1.094-0.491 1.094-1.094v-0.468c0-0.603-0.491-1.094-1.094-1.094h-2.259v-3.316h5.009c0.259 0 0.469-0.21 0.469-0.469s-0.21-0.469-0.469-0.469h-22.469c-0.431 0-0.781-0.35-0.781-0.781v-1.388h30.125v1.388c0 0.431-0.35 0.781-0.781 0.781h-3.906c-0.259 0-0.469 0.21-0.469 0.469s0.21 0.469 0.469 0.469h3.906c0.948 0 1.719-0.771 1.719-1.719v-19.466c0-0.775-0.631-1.406-1.406-1.406zM21.438 30c0.086 0 0.156 0.070 0.156 0.156v0.468c0 0.086-0.070 0.156-0.156 0.156h-10.875c-0.086 0-0.156-0.070-0.156-0.156v-0.468c0-0.086 0.070-0.156 0.156-0.156h10.875zM13.759 25.747h4.482v3.316h-4.482v-3.316zM28.763 1.239c0.027-0.027 0.070-0.027 0.097 0l1.026 1.026c0.027 0.027 0.027 0.070 0 0.097l-0.979 0.979-1.123-1.123 0.979-0.979zM27.121 2.881l1.123 1.123-0.327 0.327-1.123-1.123 0.327-0.327zM26.131 3.87l1.123 1.123-5.547 5.547-1.123-1.123 5.547-5.547zM25.438 8.156c0.638 0 1.156 0.519 1.156 1.156s-0.519 1.156-1.156 1.156-1.156-0.519-1.156-1.156c0-0.007 0.001-0.015 0.001-0.022l1.133-1.133c0.007-0 0.015-0.001 0.022-0.001zM20.893 11.052l-1.387 0.567 0.567-1.387 0.821 0.821zM31.063 21.703h-30.125v-17.142c0-0.258 0.21-0.469 0.469-0.469h23.177l-0.715 0.715h-15.931c-0.259 0-0.469 0.21-0.469 0.469s0.21 0.469 0.469 0.469h14.994l-3.306 3.306c-0.093 0.094-0.167 0.204-0.217 0.327l-1.047 2.563c-0.096 0.235-0.042 0.504 0.138 0.684 0.121 0.121 0.281 0.185 0.445 0.185 0.080 0 0.161-0.015 0.239-0.047l2.563-1.047c0.12-0.049 0.227-0.12 0.319-0.209l1.426-1.426c0.307 0.775 1.063 1.325 1.946 1.325 1.154 0 2.094-0.939 2.094-2.094 0-0.883-0.55-1.639-1.324-1.946l1.621-1.621h1.582v14.306h-0.248l-1.699-2.942c-0.129-0.224-0.416-0.301-0.64-0.172s-0.301 0.416-0.172 0.64l1.428 2.474h-6.548l-0.702-1.216 3.274-5.671 1.454 2.519c0.13 0.224 0.416 0.301 0.64 0.172s0.301-0.416 0.172-0.64l-1.552-2.688c-0.149-0.258-0.416-0.413-0.715-0.413s-0.566 0.154-0.715 0.413l-3.101 5.37-3.978-6.891c-0.149-0.258-0.416-0.413-0.715-0.413s-0.565 0.154-0.715 0.413l-1.057 1.831v-5.025c0-0.603-0.491-1.094-1.094-1.094h-8.041c-0.603 0-1.094 0.491-1.094 1.094v10.25c0 0.431 0.35 0.781 0.781 0.781h5.98l-0.697 1.207h-7.068v-14.306h3.16c0.259 0 0.469-0.21 0.469-0.469s-0.21-0.469-0.469-0.469h-3.316c-0.431 0-0.781 0.35-0.781 0.781v14.618c0 0.431 0.35 0.781 0.781 0.781h27.133c0.431 0 0.781-0.35 0.781-0.781v-14.618c0-0.431-0.35-0.781-0.781-0.781h-0.801l0.715-0.715h1.113c0.259 0 0.469 0.21 0.469 0.469v17.142zM12.885 10.408v7.498h-8.354v-7.498h8.354zM4.531 9.471v-1.659c0-0.086 0.070-0.156 0.156-0.156h8.042c0.086 0 0.156 0.070 0.156 0.156v1.659h-8.354zM11.438 18.844h1.604c0.431 0 0.781-0.35 0.781-0.781v-0.993c0.117 0.056 0.248 0.087 0.385 0.087 0.32 0 0.607-0.166 0.766-0.443l0.798-1.382c0.024-0.042 0.061-0.051 0.088-0.051s0.064 0.009 0.088 0.051l0.492 0.852c0.16 0.277 0.447 0.443 0.767 0.443s0.607-0.165 0.767-0.443l0.122-0.211 2.355 4.079h-9.708l0.697-1.207zM13.823 15.5v-0.788l1.772-3.069 1.958 3.391-0.347 0.602-0.447-0.773c-0.188-0.325-0.524-0.519-0.9-0.519s-0.712 0.194-0.9 0.519l-0.752 1.303-0.384-0.666z"></path>
</symbol>
<symbol id="icon-microphone" viewBox="0 0 32 32">
<path d="M16 0c-3.452 0-6.261 2.92-6.261 6.509v9.491c0 3.59 2.809 6.509 6.261 6.509s6.261-2.92 6.261-6.509v-9.491c0-3.589-2.809-6.509-6.261-6.509zM16 21.118c-2.46 0-4.495-1.929-4.819-4.422h9.638c-0.324 2.494-2.359 4.422-4.819 4.422zM20.87 15.304h-9.739v-8.795c0-2.822 2.184-5.118 4.87-5.118s4.87 2.296 4.87 5.118v8.795z"></path>
<path d="M25.739 12.522c-0.384 0-0.696 0.312-0.696 0.696v2.783c0 4.986-4.057 9.044-9.043 9.044s-9.043-4.057-9.043-9.044v-2.783c0-0.384-0.312-0.696-0.696-0.696s-0.696 0.312-0.696 0.696v2.783c0 5.519 4.31 10.039 9.739 10.399v4.209h-3.478c-0.384 0-0.696 0.312-0.696 0.696s0.312 0.696 0.696 0.696h8.348c0.384 0 0.696-0.312 0.696-0.696s-0.312-0.696-0.696-0.696h-3.478v-4.209c5.43-0.36 9.739-4.881 9.739-10.399v-2.783c0-0.384-0.312-0.696-0.696-0.696z"></path>
</symbol>
<symbol id="icon-blog" viewBox="0 0 32 32">
<path d="M28 2.667c-20 0-22.667 18.667-24 26.667h2.664c0.888-4.444 3.111-6.888 6.669-7.333 5.333-0.667 9.333-5.333 10.667-9.333l-2-1.333 1.333-1.333c1.333-1.333 2.672-3.333 4.667-7.333z"></path>
</symbol>
<symbol id="icon-check" viewBox="0 0 32 32">
<path d="M13.333 20.229l12.256-12.257 1.887 1.885-14.143 14.143-8.485-8.485 1.885-1.885 6.6 6.6z"></path>
</symbol>
<symbol id="icon-close" viewBox="0 0 32 32">
<path d="M16 14.115l6.6-6.6 1.885 1.885-6.6 6.6 6.6 6.6-1.885 1.885-6.6-6.6-6.6 6.6-1.885-1.885 6.6-6.6-6.6-6.6 1.885-1.885 6.6 6.6z"></path>
</symbol>
<symbol id="icon-contact" viewBox="0 0 32 32">
<path d="M8.607 25.333l-5.94 4.667v-24.667c0-0.354 0.14-0.693 0.391-0.943s0.589-0.391 0.943-0.391h24c0.354 0 0.693 0.14 0.943 0.391s0.391 0.589 0.391 0.943v18.667c0 0.354-0.14 0.693-0.391 0.943s-0.589 0.391-0.943 0.391h-19.393z"></path>
</symbol>
<symbol id="icon-contrast" viewBox="0 0 32 32">
<path d="M16.533 28.8c-7.364 0-13.333-5.969-13.333-13.333s5.969-13.333 13.333-13.333c7.364 0 13.333 5.969 13.333 13.333s-5.969 13.333-13.333 13.333zM7.639 21.367c0.876 1.311 2.033 2.412 3.385 3.223s2.869 1.311 4.438 1.466c1.57 0.154 3.154-0.041 4.639-0.572s2.834-1.386 3.949-2.501c1.115-1.115 1.969-2.464 2.5-3.949s0.727-3.069 0.572-4.639c-0.155-1.57-0.655-3.085-1.466-4.438s-1.911-2.509-3.223-3.385c0.575 2.051 0.593 4.218 0.054 6.279s-1.619 3.94-3.125 5.446c-1.505 1.507-3.385 2.585-5.445 3.125s-4.227 0.522-6.278-0.053z"></path>
</symbol>
<symbol id="icon-copyright" viewBox="0 0 32 32">
<path d="M16 2.667c7.36 0 13.333 5.973 13.333 13.333s-5.973 13.333-13.333 13.333c-7.36 0-13.333-5.973-13.333-13.333s5.973-13.333 13.333-13.333zM16 5.333c-5.893 0-10.667 4.773-10.667 10.667s4.773 10.667 10.667 10.667c5.893 0 10.667-4.773 10.667-10.667s-4.773-10.667-10.667-10.667zM16 9.333c2.427 0 4.551 1.297 5.717 3.237l-2.285 1.372c-0.36-0.6-0.87-1.095-1.481-1.435s-1.3-0.516-1.999-0.507c-0.699 0.009-1.384 0.2-1.986 0.556s-1.1 0.863-1.445 1.472c-0.345 0.608-0.524 1.297-0.52 1.996s0.192 1.385 0.544 1.989 0.856 1.106 1.462 1.454c0.606 0.349 1.293 0.532 1.992 0.532 0.691 0 1.37-0.178 1.971-0.518s1.104-0.831 1.459-1.423l2.287 1.371c-0.749 1.251-1.889 2.223-3.243 2.764s-2.849 0.625-4.255 0.235c-1.406-0.389-2.645-1.229-3.528-2.39s-1.36-2.58-1.359-4.039c0-3.68 2.987-6.667 6.667-6.667z"></path>
</symbol>
<symbol id="icon-education" viewBox="0 0 32 32">
<path d="M22.691 20.039l-6.246 5.962-6.246-5.962c-4.682 0.194-8.42 3.85-8.42 8.363v0.6c0 1.656 1.408 3 3.143 3h23.048c1.735 0 3.143-1.344 3.143-3v-0.6c0-4.513-3.739-8.169-8.42-8.363zM2.668 4.989l0.419 0.094v3.65c-0.458 0.262-0.786 0.719-0.786 1.269 0 0.525 0.301 0.963 0.727 1.231l-1.021 3.894c-0.111 0.431 0.138 0.875 0.498 0.875h2.737c0.36 0 0.609-0.444 0.498-0.875l-1.021-3.894c0.426-0.269 0.727-0.706 0.727-1.231 0-0.55-0.327-1.006-0.786-1.269v-3.287l4.321 0.994c-0.563 1.075-0.917 2.275-0.917 3.563 0 4.419 3.752 8 8.381 8s8.381-3.581 8.381-8c0-1.287-0.347-2.487-0.917-3.563l6.305-1.45c1.192-0.275 1.192-1.694 0-1.969l-12.467-2.875c-0.851-0.194-1.748-0.194-2.599 0l-12.48 2.869c-1.185 0.275-1.185 1.7 0 1.975z"></path>
</symbol>
<symbol id="icon-home" viewBox="0 0 32 32">
<path d="M26.667 26.666c0 0.354-0.14 0.693-0.391 0.943s-0.589 0.39-0.943 0.39h-18.667c-0.354 0-0.693-0.14-0.943-0.39s-0.391-0.589-0.391-0.943v-12h-4l13.769-12.517c0.245-0.223 0.565-0.347 0.897-0.347s0.652 0.124 0.897 0.347l13.769 12.517h-4v12z"></path>
</symbol>
<symbol id="icon-large" viewBox="0 0 32 32">
<path d="M17.070 16.363l-5.656 5.658-1.414-1.415 5.657-5.656-4.95-4.95h11.313v11.313l-4.95-4.95z"></path>
</symbol>
<symbol id="icon-left" viewBox="0 0 32 32">
<path d="M21.563 14.666l-7.152-7.152 1.885-1.885 10.371 10.371-10.371 10.371-1.885-1.885 7.152-7.152h-16.229v-2.667h16.229z"></path>
</symbol>
<symbol id="icon-location" viewBox="0 0 32 32">
<path d="M2.667 6.667l9.333-4 8 4 8.404-3.601c0.102-0.043 0.212-0.061 0.322-0.051s0.216 0.047 0.308 0.108c0.092 0.061 0.168 0.144 0.22 0.241s0.080 0.206 0.079 0.316v21.655l-9.333 4-8-4-8.404 3.601c-0.101 0.043-0.212 0.061-0.322 0.051s-0.216-0.047-0.308-0.108c-0.092-0.061-0.168-0.144-0.22-0.241s-0.080-0.206-0.079-0.316v-21.655zM20 26.352v-16.784l-0.087 0.037-7.913-3.957v16.784l0.087-0.037 7.913 3.957z"></path>
</symbol>
<symbol id="icon-mail" viewBox="0 0 32 32">
<path d="M4 4h24c0.354 0 0.693 0.14 0.943 0.391s0.391 0.589 0.391 0.943v21.333c0 0.354-0.14 0.693-0.391 0.943s-0.589 0.391-0.943 0.391h-24c-0.354 0-0.693-0.14-0.943-0.391s-0.391-0.589-0.391-0.943v-21.333c0-0.354 0.14-0.693 0.391-0.943s0.589-0.391 0.943-0.391zM16.080 15.577l-8.549-7.26-1.727 2.032 10.293 8.74 10.108-8.747-1.744-2.017-8.381 7.252z"></path>
</symbol>
<symbol id="icon-mobile" viewBox="0 0 32 32">
<path d="M8 2.667h16c0.354 0 0.693 0.14 0.943 0.391s0.391 0.589 0.391 0.943v24c0 0.354-0.14 0.693-0.391 0.943s-0.589 0.391-0.943 0.391h-16c-0.354 0-0.693-0.14-0.943-0.391s-0.391-0.589-0.391-0.943v-24c0-0.354 0.14-0.693 0.391-0.943s0.589-0.391 0.943-0.391zM16 22.667c-0.354 0-0.693 0.14-0.943 0.391s-0.391 0.589-0.391 0.943 0.14 0.693 0.391 0.943c0.25 0.25 0.589 0.391 0.943 0.391s0.693-0.14 0.943-0.391c0.25-0.25 0.391-0.589 0.391-0.943s-0.14-0.693-0.391-0.943c-0.25-0.25-0.589-0.391-0.943-0.391z"></path>
</symbol>
<symbol id="icon-experience" viewBox="0 0 32 32">
<path d="M12 17.333v4h8v-4h9.333v9.333c0 0.354-0.14 0.693-0.391 0.943s-0.589 0.391-0.943 0.391h-24c-0.354 0-0.693-0.14-0.943-0.391s-0.391-0.589-0.391-0.943v-9.333h9.333zM14.667 14.667h2.667v4h-2.667v-4zM9.333 6.667v-4c0-0.354 0.14-0.693 0.391-0.943s0.589-0.391 0.943-0.391h10.667c0.354 0 0.693 0.14 0.943 0.391s0.391 0.589 0.391 0.943v4h5.333c0.354 0 0.693 0.14 0.943 0.391s0.391 0.589 0.391 0.943v6.667h-9.333v-2.667h-8v2.667h-9.333v-6.667c0-0.354 0.14-0.693 0.391-0.943s0.589-0.391 0.943-0.391h5.333zM12 4v2.667h8v-2.667h-8z"></path>
</symbol>
<symbol id="icon-right" viewBox="0 0 32 32">
<path d="M17.563 16l-6.6-6.6 1.885-1.885 8.485 8.485-8.485 8.485-1.885-1.885 6.6-6.6z"></path>
</symbol>
<symbol id="icon-services" viewBox="0 0 32 32">
<path d="M31.111 7.621v0.379h-9.778v-8h0.463c0.486 0 0.953 0.158 1.297 0.439l7.482 6.121c0.344 0.281 0.537 0.663 0.537 1.061zM20.722 10c-1.008 0-1.833-0.675-1.833-1.5v-8.5h-15.278c-1.013 0-1.833 0.672-1.833 1.5v29c0 0.828 0.821 1.5 1.833 1.5h25.667c1.012 0 1.833-0.672 1.833-1.5v-20.5h-10.389zM11.189 25.032c-0.037 0.032-0.082 0.058-0.131 0.077s-0.103 0.028-0.157 0.030c-0.054 0.001-0.108-0.006-0.159-0.021s-0.097-0.039-0.137-0.070l-4.955-3.801c-0.041-0.032-0.074-0.070-0.096-0.112s-0.034-0.088-0.034-0.134c0-0.046 0.012-0.092 0.034-0.134s0.055-0.081 0.096-0.112l4.955-3.801c0.040-0.030 0.086-0.054 0.137-0.070s0.105-0.023 0.159-0.021c0.054 0.001 0.107 0.012 0.157 0.030s0.094 0.044 0.131 0.077l1.496 1.305c0.038 0.033 0.067 0.072 0.086 0.114s0.028 0.088 0.025 0.133-0.016 0.089-0.040 0.13c-0.024 0.041-0.058 0.077-0.099 0.107l-3.114 2.242 3.114 2.242c0.041 0.030 0.075 0.066 0.099 0.107s0.038 0.085 0.040 0.13c0.003 0.045-0.006 0.090-0.025 0.133s-0.048 0.081-0.086 0.114l-1.496 1.305zM15.108 28.186l-2.097-0.498c-0.105-0.025-0.194-0.083-0.246-0.161s-0.065-0.171-0.035-0.257l4.693-13.227c0.031-0.086 0.102-0.159 0.197-0.202s0.209-0.053 0.314-0.028l2.097 0.498c0.052 0.012 0.101 0.033 0.143 0.061s0.078 0.062 0.103 0.101c0.026 0.039 0.043 0.082 0.049 0.126s0.001 0.089-0.014 0.131l-4.693 13.227c-0.015 0.043-0.040 0.082-0.074 0.117s-0.076 0.063-0.123 0.085c-0.047 0.021-0.1 0.035-0.153 0.040s-0.108 0.001-0.16-0.011zM27.39 21.246l-4.955 3.801c-0.039 0.030-0.086 0.054-0.137 0.070s-0.105 0.023-0.159 0.021c-0.054-0.001-0.107-0.012-0.157-0.030s-0.094-0.044-0.131-0.077l-1.496-1.305c-0.038-0.033-0.067-0.072-0.086-0.114s-0.028-0.087-0.025-0.133 0.016-0.089 0.040-0.13c0.024-0.041 0.058-0.077 0.099-0.107l3.114-2.242-3.114-2.242c-0.041-0.030-0.075-0.066-0.099-0.107s-0.038-0.085-0.040-0.13c-0.003-0.045 0.006-0.090 0.025-0.133s0.048-0.081 0.086-0.114l1.496-1.305c0.037-0.032 0.081-0.058 0.131-0.077s0.103-0.028 0.157-0.030c0.054-0.001 0.108 0.006 0.159 0.021s0.097 0.039 0.137 0.070l4.955 3.801c0.041 0.031 0.074 0.070 0.096 0.112s0.034 0.088 0.034 0.134c0 0.046-0.012 0.092-0.034 0.134s-0.055 0.080-0.096 0.112z"></path>
</symbol>
<symbol id="icon-star" viewBox="0 0 32 32">
<path d="M16 23.546l6.952-1.796 2.905 9.127-9.857-7.331zM32 11.749h-12.238l-3.762-11.749-3.762 11.749h-12.238l9.905 7.282-3.762 11.749 25.857-19.031z"></path>
</symbol>
<symbol id="icon-download" viewBox="0 0 26 32">
<path d="M4.392 24.381h17.569v-8.784h2.196v10.039c0 0.333-0.116 0.652-0.322 0.887s-0.485 0.367-0.776 0.367h-19.765c-0.291 0-0.571-0.132-0.776-0.367s-0.322-0.555-0.322-0.887v-10.039h2.196v8.784zM15.373 11.832h5.49l-7.686 8.784-7.686-8.784h5.49v-7.529h4.392v7.529z"></path>
</symbol>
<symbol id="icon-marker" viewBox="0 0 32 32">
<path stroke-linejoin="miter" stroke-linecap="butt" stroke-miterlimit="4" stroke-width="2.1333" d="M1.067 1.067h19.2v19.2h-19.2v-19.2z"></path>
<path stroke-linejoin="miter" stroke-linecap="butt" stroke-miterlimit="4" stroke-width="2.1333" d="M11.733 11.733h19.2v19.2h-19.2v-19.2z"></path>
</symbol>
<symbol id="icon-facebook" viewBox="0 0 32 32">
<path d="M18.667 18h3.333l1.333-5.333h-4.667v-2.667c0-1.373 0-2.667 2.667-2.667h2v-4.48c-0.435-0.057-2.076-0.187-3.809-0.187-3.62 0-6.191 2.209-6.191 6.267v3.733h-4v5.333h4v11.333h5.333v-11.333z"></path>
</symbol>
<symbol id="icon-linkedin" viewBox="0 0 32 32">
<path d="M9.253 6.667c-0 0.707-0.282 1.385-0.782 1.885s-1.179 0.78-1.886 0.78c-0.707-0-1.385-0.282-1.885-0.782s-0.78-1.179-0.78-1.886c0-0.707 0.282-1.385 0.782-1.885s1.179-0.78 1.886-0.78c0.707 0 1.385 0.282 1.885 0.782s0.78 1.179 0.78 1.886zM9.333 11.307h-5.333v16.693h5.333v-16.693zM17.76 11.307h-5.307v16.693h5.253v-8.76c0-4.88 6.36-5.333 6.36 0v8.76h5.267v-10.573c0-8.227-9.413-7.92-11.627-3.88l0.053-2.24z"></path>
</symbol>
<symbol id="icon-menu" viewBox="0 0 32 32">
<path d="M4 9.333h24c0.736 0 1.333-0.597 1.333-1.333s-0.597-1.333-1.333-1.333h-24c-0.736 0-1.333 0.597-1.333 1.333s0.597 1.333 1.333 1.333zM28 14.667h-24c-0.736 0-1.333 0.597-1.333 1.333s0.597 1.333 1.333 1.333h24c0.736 0 1.333-0.597 1.333-1.333s-0.597-1.333-1.333-1.333zM28 22.667h-24c-0.736 0-1.333 0.597-1.333 1.333s0.597 1.333 1.333 1.333h24c0.736 0 1.333-0.597 1.333-1.333s-0.597-1.333-1.333-1.333z"></path>
</symbol>
<symbol id="icon-profile" viewBox="0 0 32 32">
<path d="M30.809 25.584c-0.003-1.368-0.96-1.4-2.097-1.861l-5.34-2.133c-0.091-0.033-0.185-0.081-0.279-0.117v-0.003c-0.944-0.429-1.784-1.028-2.091-1.441l-0.007-0.024-0.003-0.003c-0.023-0.028-0.048-0.056-0.059-0.075l-0.007-0.024-0.001-0.005-0.017-0.023c-0.133-0.213-0.284-0.312-0.408-0.259l-0.005 0.001h-0.003l-0.004 0.003-0.019 0.007c-0.137 0.084-0.111-0.007-0.168-0.161-0.148-0.401-0.391-1.131-0.425-1.247-0.059-0.196-0.196 0.317-0.164-0.248l0.063-1.015c0.095-0.112 0.171-0.2 0.225-0.257 0.349-0.391 0.379-1.447 0.556-1.7 0.168-0.252 0.515-0.311 0.869-1.5 0.351-1.199 0.767-2.9 0.324-2.925-0.116-0.008-0.244 0.064-0.369 0.177 0.084-0.437 0.247-1.433 0.281-2.161 0.055-0.965-0.104-3.444-0.657-4.352-0.343-0.568-1.033-1.128-1.723-1.567-0.413-0.264-0.817-0.48-1.163-0.627-1.001-0.448-4.179-0.244-5.247 0-1.22 0.271-2.080 1.036-2.625 1.944-0.547 0.913-0.795 3.635-0.747 4.6 0.027 0.428 0.283 1.161 0.348 1.609 0.041 0.235 0.073 0.235 0.105 0.397-0.051-0.017-0.093-0.028-0.137-0.023-0.444 0.024-0.024 1.727 0.323 2.924 0.356 1.191 0.699 1.248 0.873 1.5s0.201 1.308 0.549 1.701c0.051 0.059 0.139 0.155 0.237 0.271l0.072 0.835 0.112 0.452c-0.051-0.127-0.156-0.219-0.205-0.036-0.153 0.46-0.297 0.911-0.449 1.368-0.016-0.025-0.044-0.033-0.065-0.033-0.151-0.14-0.343-0.023-0.517 0.281-0.264 0.436-1.139 1.069-2.151 1.517l-0.015 0.061-0.016 0.053-0.005 0.027c-0.077 0.031-0.156 0.064-0.244 0.095l-5.332 2.133c-1.14 0.464-2.097 0.493-2.099 1.861l-0.885 4.638h32l-1.191-4.636z"></path>
</symbol>
</defs>
</svg>
